<?xml version="1.0" encoding="UTF-8"?>
<svg width="160px" height="160px" viewBox="0 0 160 160" version="1.1" xmlns="http://www.w3.org/2000/svg" xmlns:xlink="http://www.w3.org/1999/xlink">
    <!-- Generator: Sketch 52.5 (67469) - http://www.bohemiancoding.com/sketch -->
    <title>Alan Loader / Dark / Big / loader-big-state-dark-10</title>
    <desc>Created with Sketch.</desc>
    <g id="Alan-Loader-/-Dark-/-Big-/-loader-big-state-dark-10" stroke="none" stroke-width="1" fill="none" fill-rule="evenodd">
        <circle id="bg" fill-opacity="0.1" fill="#0079E8" cx="80" cy="80" r="72"></circle>
        <g id="logo" transform="translate(32.000000, 42.000000)" fill="#0079E8">
            <path d="M39.2800019,2.99093701 L48,19.7333333 L36.5423848,42 L12.9547893,42 C11.402622,42.0002127 9.97923553,42.5998678 9.26125569,43.9783891 L30.9983319,2.24320275 C31.6921563,0.911059928 33.0447111,0.058976667 34.535622,0.00294436231 C36.5345542,0.0679885783 38.3505622,1.20641284 39.2800019,2.99093701 Z" id="shape" fill-opacity="0.5"></path>
            <path d="M36.5416938,42.001309 L47.9129164,42 C49.4619123,41.9997904 50.8831735,42.849957 51.6029692,44.207307 L59.9638029,59.9736951 C60.676688,61.3180134 60.1533703,62.9797028 58.7949402,63.6851822 C58.3967675,63.891967 57.9538186,64 57.5041477,64 L3.4157299,64 C1.88160559,64 0.637952119,62.7541837 0.637952119,61.2173913 C0.637952119,60.7691895 0.746031237,60.32762 0.952994213,59.9302511 L9.26125569,43.9783891 C9.97923553,42.5998678 11.402622,42.0002127 12.9547893,42 L36.5423848,42 L36.5416938,42.001309 Z" id="Path" fill-opacity="0.3"></path>
            <path d="M56.7199981,2.99093701 C57.6494378,1.20641284 59.4654458,0.0679885783 61.464378,0.00294436231 C61.4122684,0.000985951383 61.3599899,-1.04940281e-14 61.3075646,-1.05036752e-14 L61.8888889,-1.42108547e-14 L61.6454695,-1.05393819e-14 C61.5849525,-1.04208839e-14 61.5245823,0.000985345271 61.464378,0.00294436231 C62.9552889,0.058976667 64.3078437,0.911059928 65.0016681,2.24320275 L95.0470058,59.9302511 C95.2539688,60.32762 95.3620479,60.7691895 95.3620479,61.2173913 C95.3620479,62.7541837 94.1183944,64 92.5842701,64 L73.5813243,64 C72.0289522,64 70.6052954,63.1355004 69.8872208,61.7567972 L48,19.7333333 L56.7199981,2.99093701 Z" id="shape" fill-opacity="0.5"></path>
            <path d="M61.3075646,-1.05036752e-14 C61.3599899,-1.04940281e-14 61.4122684,0.000985951383 61.464378,0.00294436231 C59.4654458,0.0679885783 57.6494378,1.20641284 56.7199981,2.99093701 L48,19.7333333 L39.2800019,2.99093701 C38.3225692,1.15266612 36.42436,-1.01468219e-14 34.3545305,-1.42108547e-14 L61.3075646,-1.05036752e-14 Z" id="shape"></path>
        </g>
    </g>
</svg>